<svg viewBox="0 0 57 57" fill="none" xmlns="http://www.w3.org/2000/svg">
  <path fill-rule="evenodd" clip-rule="evenodd" d="M42.072 8.188a24.429 24.429 0 10-27.144 40.624A24.429 24.429 0 0042.072 8.188zM12.666 4.803a28.5 28.5 0 1131.668 47.393A28.5 28.5 0 0112.666 4.803zm5.225 13.875l6.8 9.233-8.318 11.165a3.811 3.811 0 00-.714 2.139 2.936 2.936 0 003.195 2.933 3.038 3.038 0 002.6-1.384l6.89-9.568 6.893 9.571a3.042 3.042 0 002.6 1.384 2.937 2.937 0 003.188-2.938 3.81 3.81 0 00-.723-2.139l-8.31-11.165 6.8-9.245a3.017 3.017 0 00-2.517-4.911 3.62 3.62 0 00-2.728 1.566l-5.205 7.388-5.205-7.363a3.583 3.583 0 00-2.728-1.566 3.012 3.012 0 00-2.518 4.9z" fill="currentColor"/>
</svg>