<svg xmlns="http://www.w3.org/2000/svg" viewBox="0 0 90 112.5">
  <path d="M74.2 38.3c-2.4-.4-4.2-.5-5.4-.3-.4.1-.8.2-1.1.3-.4-.4-.8-.8-1.2-1.3-.7-.7-1.8-1.5-3.1-2.4-3.1-2.1-6-3.7-8.8-4.7-1.5-.5-3-.9-4.5-1.1-.4-.1-.9-.1-1.3-.1-3.9-.4-7.2-.1-9.8.7-4.3 1.4-6.7 4.2-7.2 8.4-.1.3-.1.7 0 1-.1.1-.2.2-.4.3-1.7 1.3-2.6 2.9-2.8 4.8-.1.7 0 1.7.3 2.8v-.1c.1.5.3.9.5 1.3-.9 1.1-1.5 2.3-1.6 3.6 0 .4-.1.8 0 1.2-1 0-2-.1-3-.3h-.1c-1.5-.2-3-.5-4.4-.9-6.5-2.1-10.5-1.2-12 2.6-1.8 3.6-.9 6.8 2.7 9.4 2.9 2.2 6.6 3.5 11.1 3.9 4.2.4 8.6.3 13.1-.3 2.9-.4 5.4-.6 7.5-.6-4.2 2.1-7.5 4.9-9.7 8.1-2.7 3.8-2.4 7.4.7 10.5l.4.4c1.9 1.8 3.9 2.4 6.1 1.8 1.8-.4 3.7-1.8 5.7-4.2 2.9-3.6 6.8-5.8 11.7-6.7 4.9-.8 8.8-2.7 12-5.7 2.8.8 5.5.5 8.1-.9h.1c3.5-1.7 5.1-7.1 4.9-16.3-.4-9.4-3.2-14.5-8.5-15.2zm4.5 15.4c.2 7.1-.8 11.4-2.9 12.8h.1c-1.3.7-2.7 1-4 .8 1.4-3 1.9-6.2 1.6-9.3 0-.5-.3-1-.7-1.3-.4-.3-.9-.5-1.4-.5-.5 0-1 .3-1.3.7-.3.4-.5.9-.5 1.4.3 3.1-.5 6.2-2.2 9.1-2.7 2.8-6.2 4.6-10.5 5.3-5.9 1-10.6 3.7-14.1 8-1.3 1.6-2.5 2.6-3.7 2.9-.8.1-1.6-.1-2.3-.8l-.1-.1c-1.9-1.8-2-3.7-.6-5.9 2-2.8 4.8-5.1 8.4-6.9 2.5-1.3 4-2.3 4.3-3.2.7-1.3.5-2.4-.8-3.2-.4-.3-1.2-.6-2.3-.7-2.9-.4-6.6-.2-11.2.4-4.2.6-8.3.7-12.2.3-3.7-.3-6.7-1.4-9.1-3.2-1.8-1.3-2.2-2.9-1.5-4.6 1-1.6 3.4-1.8 7.3-.6 1.6.5 3.3.9 5.1 1.1H24c2.2.4 4.5.4 6.9.3h.1c1.9-.1 4.3-.3 7.1-.7.5-.1 1-.3 1.3-.7.3-.4.5-.9.4-1.4-.1-.5-.3-1-.7-1.3-.4-.3-.9-.5-1.4-.4-2.4.3-4.4.5-6.2.6V52c.2-1 .8-1.9 2-2.8.9-.5 2.4-.9 4.5-1.2 1-.1 2.1-.3 3.3-.3.5 0 1-.3 1.3-.7.3-.4.5-.9.5-1.4 0-.5-.3-1-.7-1.3-.4-.3-.9-.5-1.4-.5-2.3.2-4.2.4-5.7.7-1.2.2-2.2.5-2.9.9-.1-.4-.2-.8-.1-1 .2-.8.6-1.5 1.3-2.2.4-.3.8-.6 1.3-.9 1.4-.6 4-1 7.8-1 .5 0 1-.2 1.4-.6.4-.4.5-.9.5-1.4 0-.5-.2-1-.6-1.4-.4-.4-.9-.5-1.4-.5-2.9.1-5.2.3-6.9.7.6-1.9 2-3.2 4.2-3.9 2.2-.7 5-.9 8.2-.6.4 0 .8.1 1.2.1 1.2.2 2.5.5 3.7.9 2.5.9 5.1 2.3 7.9 4.2 1.1.8 2 1.4 2.6 2 .9.8 1.6 1.7 2.3 2.5v.1c1.2 1.5 2.1 3 2.8 4.6v.1c.1.4.3.7.4 1 .2.5.6.8 1.1 1 .5.2 1 .2 1.5 0s.8-.6 1-1.1c.2-.5.2-1 0-1.5-.1-.3-.3-.6-.4-.9v-.1c-.5-1.3-1.2-2.5-2-3.7.8 0 1.8.1 3 .3 3.5.9 5.3 4.7 5.5 11.6z" fill="currentColor"/>
</svg>