<svg xmlns="http://www.w3.org/2000/svg" viewBox="0 0 43.537 51.021">
  <path fill="currentColor" d="M23.204 51.022a10.054 10.054 0 01-8.4-4.825 10.273 10.273 0 01-1.192-7.834 1.294 1.294 0 011.646-.965 1.334 1.334 0 01.965 1.646 7.659 7.659 0 00.851 5.79 7.024 7.024 0 007.777 3.236c3.009-.908 4.712-3.86 5.279-6.358a12.552 12.552 0 00.284-1.419 22.433 22.433 0 011.362-4.6 15.5 15.5 0 014.03-5c5.449-4.541 6.131-13.34 4.03-19.641a12.11 12.11 0 00-6.471-7.039 13.744 13.744 0 00-10.9-.341c-5 1.987-7.209 8.117-6.755 12.886a1.367 1.367 0 11-2.725.227c-.568-5.733 2.214-13.17 8.4-15.667a16.449 16.449 0 0113 .454 14.57 14.57 0 017.89 8.628c2.327 6.982 1.816 17.03-4.825 22.593a12.826 12.826 0 00-3.349 4.087 22.176 22.176 0 00-1.192 4.03c-.114.511-.227.965-.341 1.476-.738 3.236-3.065 7.1-7.152 8.345a10.554 10.554 0 01-2.212.291z"/>
  <path fill="currentColor" d="M22.977 36.038a4.943 4.943 0 01-3.519-1.476 5.013 5.013 0 01-1.249-4.484 1.37 1.37 0 012.668.624 2.146 2.146 0 003.179 2.327 5.553 5.553 0 001.537-2.329c.227-.454.454-.965.681-1.419a14.476 14.476 0 012.209-2.843c1.362-1.419 2.271-2.384 1.987-4.428-.284-2.1-1.022-4.6-2.952-4.712a1.337 1.337 0 01.175-2.66c1.76.114 4.768 1.135 5.506 7.039.454 3.349-1.249 5.109-2.725 6.642a11.4 11.4 0 00-1.816 2.271 7.693 7.693 0 00-.568 1.192 7.636 7.636 0 01-2.497 3.456 4.666 4.666 0 01-2.616.8z"/>
  <path fill="currentColor" d="M24.623 23.831a1.329 1.329 0 01-.965-.4c-.227-.227-5.336-5.506-3.179-10.785a8.806 8.806 0 016.982-5.62 7.229 7.229 0 017.152 2.952 1.354 1.354 0 11-2.271 1.476 4.59 4.59 0 00-4.428-1.76h-.17a5.831 5.831 0 00-4.712 3.917c-1.476 3.633 2.554 7.834 2.611 7.89a1.407 1.407 0 010 1.93 1.557 1.557 0 01-1.02.4z"/>
  <path fill="currentColor" d="M8.047 37.966a1.526 1.526 0 01-1.022-.453 1.356 1.356 0 01.114-1.93 11.445 11.445 0 003.292-9.991 11.5 11.5 0 00-5.222-8.4 1.363 1.363 0 111.419-2.327 14.173 14.173 0 016.528 10.331 13.972 13.972 0 01-4.144 12.375 1.534 1.534 0 01-.965.395z"/>
  <path fill="currentColor" d="M2.314 32.97a1.4 1.4 0 01-1.079-.511 1.34 1.34 0 01.17-1.873 4.414 4.414 0 001.476-3.86A4.284 4.284 0 00.724 23.49a1.346 1.346 0 011.252-2.384 7.067 7.067 0 011.135 11.58 1.062 1.062 0 01-.797.284z"/>
</svg>